<?xml version="1.0" encoding="utf-8"?>
<!-- Generator: Adobe Illustrator 23.0.0, SVG Export Plug-In . SVG Version: 6.00 Build 0)  -->
<svg version="1.1" id="Layer_1" xmlns="http://www.w3.org/2000/svg" xmlns:xlink="http://www.w3.org/1999/xlink" x="0px" y="0px"
	 viewBox="0 0 1200 1000" style="enable-background:new 0 0 1200 1000;" xml:space="preserve">
<style type="text/css">
	.st0{fill:#F15A26;}
	.st1{fill:#F79420;}
</style>
<g>
	<g>
		<path class="st0" d="M219.51,638.08l0.2,0.59c-0.66,16.76-5.61,29.55-14.87,38.39c-9.26,8.83-22.7,13.25-40.3,13.25
			c-17.67,0-32.04-5.43-43.1-16.3c-11.06-10.86-16.59-24.97-16.59-42.32v-29.84c0-17.28,5.32-31.37,15.95-42.27
			c10.63-10.9,24.46-16.35,41.48-16.35c18.07,0,31.88,4.55,41.43,13.65c9.55,9.1,14.95,22.02,16.2,38.78l-0.2,0.59h-32.3
			c-0.46-9.29-2.54-16.2-6.23-20.72c-3.7-4.52-10-6.77-18.9-6.77c-7.53,0-13.45,3.03-17.77,9.08c-4.32,6.05-6.48,13.99-6.48,23.81
			v30.04c0,9.88,2.36,17.87,7.07,23.96c4.71,6.09,11.19,9.13,19.44,9.13c7.98,0,13.65-2.12,16.99-6.38
			c3.34-4.25,5.24-11.03,5.69-20.32H219.51z"/>
		<path class="st0" d="M296.68,688.15c-0.92-1.7-1.75-3.6-2.5-5.7c-0.75-2.09-1.39-4.25-1.91-6.48c-3.14,4.39-6.94,7.87-11.39,10.46
			c-4.45,2.59-9.85,3.88-16.2,3.88c-10.08,0-18.28-2.91-24.59-8.74c-6.32-5.83-9.47-13.58-9.47-23.27c0-10.54,3.94-18.67,11.83-24.4
			c7.89-5.73,19.88-8.59,35.98-8.59h12.08v-7.56c0-4.52-1.06-7.99-3.19-10.41c-2.13-2.42-5.42-3.63-9.87-3.63
			c-3.8,0-6.63,0.9-8.49,2.7c-1.87,1.8-2.8,4.6-2.8,8.4l-32.1-0.1l-0.2-0.59c-0.46-9.69,3.57-17.78,12.08-24.3
			c8.51-6.51,19.77-9.77,33.77-9.77c13.09,0,23.71,3.27,31.86,9.82c8.15,6.55,12.22,15.91,12.22,28.08v40.06
			c0,5.69,0.47,10.97,1.42,15.81c0.95,4.84,2.37,9.65,4.27,14.43L296.68,688.15z M274.79,666.65c3.27,0,6.28-0.65,9.03-1.96
			c2.75-1.31,4.97-3.01,6.68-5.11v-16.59h-11.78c-5.24,0-9.05,1.28-11.44,3.83c-2.39,2.55-3.58,5.79-3.58,9.72
			c0,3.01,1.03,5.45,3.09,7.31C268.85,665.72,271.51,666.65,274.79,666.65z"/>
		<path class="st0" d="M373.46,582.02l1.18,14.04c3.34-5.1,7.54-9.05,12.62-11.83c5.07-2.78,10.88-4.17,17.43-4.17
			c6.61,0,12.3,1.44,17.08,4.32s8.38,7.26,10.8,13.15c3.27-5.56,7.48-9.87,12.62-12.91c5.14-3.04,11.14-4.57,18.02-4.57
			c10.34,0,18.47,3.55,24.4,10.65c5.92,7.1,8.89,18.05,8.89,32.84v64.7h-33.28v-64.7c0-6.87-1.06-11.58-3.19-14.14
			c-2.13-2.55-5.32-3.83-9.57-3.83c-3.21,0-6.04,0.57-8.49,1.72c-2.46,1.15-4.53,2.73-6.23,4.76c0,1.11,0.03,2.07,0.1,2.9
			c0.06,0.82,0.1,1.62,0.1,2.4v70.88h-33.18v-64.7c0-6.87-1.05-11.58-3.14-14.14c-2.1-2.55-5.33-3.83-9.72-3.83
			c-3.01,0-5.74,0.57-8.2,1.72c-2.45,1.15-4.53,2.73-6.23,4.76v76.18h-33.18V582.02H373.46z"/>
		<path class="st0" d="M678.59,638.08l0.2,0.59c-0.66,16.76-5.61,29.55-14.87,38.39c-9.26,8.83-22.7,13.25-40.3,13.25
			c-17.67,0-32.04-5.43-43.1-16.3c-11.06-10.86-16.59-24.97-16.59-42.32v-29.84c0-17.28,5.32-31.37,15.95-42.27
			c10.63-10.9,24.46-16.35,41.48-16.35c18.07,0,31.88,4.55,41.43,13.65c9.55,9.1,14.95,22.02,16.2,38.78l-0.2,0.59h-32.3
			c-0.46-9.29-2.54-16.2-6.23-20.72c-3.7-4.52-10-6.77-18.9-6.77c-7.53,0-13.45,3.03-17.77,9.08c-4.32,6.05-6.48,13.99-6.48,23.81
			v30.04c0,9.88,2.36,17.87,7.07,23.96c4.71,6.09,11.19,9.13,19.44,9.13c7.98,0,13.65-2.12,16.99-6.38
			c3.34-4.25,5.24-11.03,5.69-20.32H678.59z"/>
		<path class="st0" d="M690.08,634.15c0-15.97,4.52-28.98,13.55-39.03c9.03-10.05,21.63-15.07,37.8-15.07
			c7.53,0,14.34,1.16,20.42,3.49c6.09,2.32,11.35,5.61,15.81,9.87c3.14-2.68,5.53-6.27,7.17-10.75c1.64-4.48,2.46-9.77,2.46-15.86
			h22.19c0,9.69-1.9,18-5.69,24.94c-3.8,6.94-9.23,12.21-16.3,15.81c1.77,3.93,3.11,8.13,4.02,12.62s1.38,9.15,1.38,13.99v2.06
			c0,16.04-4.52,29.06-13.55,39.08c-9.03,10.01-21.6,15.02-37.7,15.02c-16.3,0-28.96-5.01-37.99-15.02
			c-9.03-10.02-13.55-23.04-13.55-39.08V634.15z M759.39,566.8h-27l-27.69-25.53l0.2-0.59h34.07L759.39,566.8z M723.26,636.22
			c0,8.9,1.39,15.89,4.17,20.96c2.78,5.07,7.51,7.61,14.19,7.61c6.48,0,11.13-2.55,13.94-7.66c2.81-5.11,4.22-12.07,4.22-20.91
			v-2.06c0-8.64-1.41-15.56-4.22-20.76c-2.82-5.2-7.53-7.81-14.14-7.81c-6.55,0-11.21,2.62-13.99,7.86
			c-2.78,5.23-4.17,12.14-4.17,20.71V636.22z"/>
		<path class="st0" d="M867.19,688.25v-63.52h-11.68v-18.75h11.68V545.3h51.64c16.82,0,30.89,5.48,42.22,16.44
			c11.32,10.97,16.98,25.02,16.98,42.17v25.72c0,17.21-5.66,31.29-16.98,42.22c-11.33,10.93-25.4,16.39-42.22,16.39H867.19z
			 M922.86,624.73h-22.39v37.99h16.1c8.84,0,15.74-3.03,20.72-9.08c4.97-6.05,7.46-14.06,7.46-24v-25.92
			c0-9.88-2.49-17.83-7.46-23.86c-4.97-6.02-11.88-9.03-20.72-9.03h-16.1v35.15h22.39V624.73z"/>
		<path class="st0" d="M992.36,634.15c0-15.97,4.52-28.98,13.55-39.03c9.03-10.05,21.63-15.07,37.8-15.07
			c16.23,0,28.87,5.03,37.9,15.07c9.03,10.05,13.55,23.06,13.55,39.03v2.06c0,16.04-4.52,29.06-13.55,39.08
			c-9.03,10.01-21.6,15.02-37.7,15.02c-16.3,0-28.96-5.01-37.99-15.02c-9.03-10.02-13.55-23.04-13.55-39.08V634.15z M1025.55,636.22
			c0,8.9,1.39,15.89,4.17,20.96c2.78,5.07,7.51,7.61,14.19,7.61c6.48,0,11.13-2.55,13.94-7.66c2.81-5.11,4.22-12.07,4.22-20.91
			v-2.06c0-8.64-1.41-15.56-4.22-20.76c-2.82-5.2-7.53-7.81-14.14-7.81c-6.55,0-11.21,2.62-13.99,7.86
			c-2.78,5.23-4.17,12.14-4.17,20.71V636.22z M1030.95,563.66l-2.16-12.37c4.71-0.13,8.12-0.69,10.21-1.67
			c2.1-0.98,2.98-2.39,2.65-4.22v-0.59c0.33-2.29-0.62-3.89-2.85-4.81c-2.23-0.91-5.5-1.37-9.82-1.37l0.69-14.24
			c13.35,0,23.56,1.7,30.63,5.11c7.07,3.4,10.6,8.15,10.6,14.24c0,4.06-1.42,7.25-4.27,9.57s-6.33,3.75-10.46,4.27v6.09H1030.95z"/>
	</g>
	<g>
		<g>
			<path class="st1" d="M576.33,296.55l7.13-0.56l2.91-6.49c2.39-5.42,7.73-8.89,13.63-8.89s11.24,3.51,13.63,8.89l2.91,6.49
				l7.13,0.56c121.81,9.12,223.7,88.98,266.45,197.24h25.86c-15.22-42.36-38.97-81.57-70.33-115.2
				c-56.34-60.41-132.05-97.66-213.86-105.35C624.59,263,612.79,256.7,600,256.7s-24.59,6.3-31.8,16.54
				c-81.8,7.69-157.51,44.95-213.86,105.35c-31.36,33.63-55.11,72.84-70.33,115.2h25.86C352.63,385.53,454.52,305.68,576.33,296.55z
				 M623.67,918.15l-7.13,0.56l-2.91,6.49c-2.39,5.38-7.73,8.89-13.63,8.89s-11.24-3.51-13.63-8.89l-2.91-6.49l-7.13-0.56
				c-112.65-8.45-208.28-77.38-255.85-173.33h-26.82c14.94,33.23,35.3,64.07,60.69,91.29c56.34,60.41,132.05,97.66,213.86,105.35
				C575.41,951.7,587.21,958,600,958s24.59-6.3,31.8-16.54c81.8-7.69,157.51-44.95,213.86-105.35
				c25.38-27.22,45.74-58.06,60.69-91.29h-26.82C831.95,840.77,736.31,909.71,623.67,918.15z"/>
		</g>
	</g>
	<g>
		<path class="st1" d="M664.86,241.6c-11.6,0-23.27-1.37-34.78-4.19l-6.73-1.65l-1.91-6.65c-14.44-50.15-0.97-104.65,35.17-142.23
			c36.11-37.56,90-53.13,140.66-40.63l6.7,1.65l1.91,6.64c14.46,50.1,1.01,104.55-35.1,142.12h0
			C742.87,225.68,704.32,241.6,664.86,241.6z M642.66,215.66c40.38,7.46,82.3-5.84,110.89-35.58
			c28.59-29.74,40.2-72.13,31.12-112.11c-40.33-7.52-82.25,5.74-110.83,35.47C645.23,133.2,633.6,175.63,642.66,215.66z"/>
	</g>
	<g>
		<path class="st1" d="M540.75,238.13c-29.44,0-58.19-11.87-79.01-33.53l0,0c-26.94-28.02-36.98-68.65-26.19-106.02l1.92-6.64
			l6.71-1.65c37.78-9.32,77.99,2.29,104.93,30.31c26.95,28.03,37,68.68,26.23,106.09l-1.92,6.65l-6.72,1.65
			C558.11,237.1,549.4,238.13,540.75,238.13z M478.98,188.03c19.4,20.18,47.63,29.49,75.06,25.15c5.43-27.24-2.76-55.82-22.17-76
			c-19.4-20.17-47.61-29.45-75.02-25.08C451.4,139.31,459.58,167.85,478.98,188.03L478.98,188.03z"/>
	</g>
	<g>
		
			<ellipse transform="matrix(0.6387 -0.7695 0.7695 0.6387 -56.5434 664.9479)" class="st1" cx="679.75" cy="392.68" rx="17.43" ry="33.92"/>
	</g>
	<g>
		
			<ellipse transform="matrix(0.6387 -0.7695 0.7695 0.6387 -27.1817 743.5826)" class="st1" cx="778.16" cy="400.73" rx="14.86" ry="28.92"/>
	</g>
	<g>
		
			<ellipse transform="matrix(0.6387 -0.7695 0.7695 0.6387 -78.6303 750.1176)" class="st1" cx="759.39" cy="458.78" rx="7.77" ry="15.13"/>
	</g>
</g>
</svg>
